<svg width="453" height="66" viewBox="0 0 453 66" fill="none" xmlns="http://www.w3.org/2000/svg">
<path d="M43.2979 27.0093V36.6069H9.26181V27.0093H43.2979ZM12.5943 0.304688V65H0.375092V0.304688H12.5943ZM52.3624 0.304688V65H40.1432V0.304688H52.3624ZM109.895 0.304688H122.114V43.272C122.114 48.2189 121.048 52.3809 118.915 55.7578C116.782 59.1051 113.879 61.6379 110.206 63.356C106.533 65.0444 102.356 65.8887 97.6758 65.8887C92.9362 65.8887 88.715 65.0444 85.0122 63.356C81.3094 61.6379 78.4064 59.1051 76.3032 55.7578C74.2 52.3809 73.1484 48.2189 73.1484 43.272V0.304688H85.3677V43.272C85.3677 46.2935 85.8712 48.7669 86.8784 50.6924C87.8856 52.5882 89.3074 53.9953 91.144 54.9136C92.9806 55.8319 95.1579 56.291 97.6758 56.291C100.223 56.291 102.401 55.8319 104.208 54.9136C106.044 53.9953 107.451 52.5882 108.429 50.6924C109.406 48.7669 109.895 46.2935 109.895 43.272V0.304688ZM142.811 0.304688H166.317C171.234 0.304688 175.455 1.04525 178.98 2.52637C182.505 4.00749 185.216 6.19954 187.112 9.10254C189.008 12.0055 189.955 15.575 189.955 19.811C189.955 23.1584 189.363 26.0614 188.178 28.52C186.993 30.9787 185.32 33.0374 183.157 34.6963C181.024 36.3551 178.506 37.6585 175.603 38.6064L171.782 40.5615H151.032L150.943 30.9194H166.45C168.968 30.9194 171.056 30.4751 172.715 29.5864C174.374 28.6978 175.618 27.4684 176.448 25.8984C177.307 24.3285 177.736 22.5363 177.736 20.522C177.736 18.3595 177.322 16.4933 176.492 14.9233C175.663 13.3237 174.404 12.0944 172.715 11.2354C171.027 10.3763 168.894 9.94678 166.317 9.94678H155.031V65H142.811V0.304688ZM179.336 65L164.362 36.0293L177.292 35.9849L192.444 64.3779V65H179.336ZM209.764 0.304688H233.269C238.187 0.304688 242.408 1.04525 245.933 2.52637C249.458 4.00749 252.168 6.19954 254.064 9.10254C255.96 12.0055 256.908 15.575 256.908 19.811C256.908 23.1584 256.316 26.0614 255.131 28.52C253.946 30.9787 252.272 33.0374 250.11 34.6963C247.977 36.3551 245.459 37.6585 242.556 38.6064L238.735 40.5615H217.984L217.895 30.9194H233.403C235.921 30.9194 238.009 30.4751 239.668 29.5864C241.327 28.6978 242.571 27.4684 243.4 25.8984C244.259 24.3285 244.689 22.5363 244.689 20.522C244.689 18.3595 244.274 16.4933 243.445 14.9233C242.615 13.3237 241.356 12.0944 239.668 11.2354C237.979 10.3763 235.846 9.94678 233.269 9.94678H221.983V65H209.764V0.304688ZM246.288 65L231.314 36.0293L244.244 35.9849L259.396 64.3779V65H246.288ZM302.444 10.1245L284.004 65H271.073L295.245 0.304688H303.51L302.444 10.1245ZM317.862 65L299.333 10.1245L298.222 0.304688H306.531L330.837 65H317.862ZM317.018 40.9614V50.6035H282.315V40.9614H317.018ZM348.646 0.304688L362.864 30.4751L377.172 0.304688H390.591L369.085 41.3169V65H356.688V41.3169L335.138 0.304688H348.646ZM418.664 0.304688L417.375 45.5825H407.467L406.178 0.304688H418.664ZM405.823 59.5347C405.823 57.7869 406.415 56.3206 407.6 55.1357C408.815 53.9212 410.444 53.314 412.488 53.314C414.532 53.314 416.146 53.9212 417.331 55.1357C418.546 56.3206 419.153 57.7869 419.153 59.5347C419.153 61.2528 418.546 62.7043 417.331 63.8892C416.146 65.0741 414.532 65.6665 412.488 65.6665C410.444 65.6665 408.815 65.0741 407.6 63.8892C406.415 62.7043 405.823 61.2528 405.823 59.5347ZM452.114 0.304688L450.825 45.5825H440.916L439.628 0.304688H452.114ZM439.272 59.5347C439.272 57.7869 439.865 56.3206 441.05 55.1357C442.264 53.9212 443.893 53.314 445.937 53.314C447.981 53.314 449.596 53.9212 450.781 55.1357C451.995 56.3206 452.602 57.7869 452.602 59.5347C452.602 61.2528 451.995 62.7043 450.781 63.8892C449.596 65.0741 447.981 65.6665 445.937 65.6665C443.893 65.6665 442.264 65.0741 441.05 63.8892C439.865 62.7043 439.272 61.2528 439.272 59.5347Z" fill="white"/>
</svg>
