<svg width="456" height="31" viewBox="0 0 456 31" fill="none" xmlns="http://www.w3.org/2000/svg">
<path d="M6.68359 0.851562L13.0898 14.4448L19.5361 0.851562H25.582L15.8926 19.3296V30H10.3071V19.3296L0.597656 0.851562H6.68359ZM55.6073 14.6851V16.1865C55.6073 18.3887 55.3137 20.3706 54.7265 22.1323C54.1392 23.8807 53.3051 25.3688 52.224 26.5967C51.143 27.8245 49.855 28.7655 48.3603 29.4194C46.8655 30.0734 45.2038 30.4004 43.3754 30.4004C41.5736 30.4004 39.9187 30.0734 38.4105 29.4194C36.9158 28.7655 35.6212 27.8245 34.5268 26.5967C33.4324 25.3688 32.5849 23.8807 31.9843 22.1323C31.3837 20.3706 31.0834 18.3887 31.0834 16.1865V14.6851C31.0834 12.4696 31.3837 10.4876 31.9843 8.73926C32.5849 6.99089 33.4257 5.50277 34.5067 4.2749C35.5878 3.03369 36.8757 2.0861 38.3705 1.43213C39.8786 0.778158 41.5336 0.451172 43.3354 0.451172C45.1638 0.451172 46.8254 0.778158 48.3202 1.43213C49.815 2.0861 51.1029 3.03369 52.184 4.2749C53.2784 5.50277 54.1192 6.99089 54.7064 8.73926C55.307 10.4876 55.6073 12.4696 55.6073 14.6851ZM50.0419 16.1865V14.645C50.0419 13.0568 49.8951 11.6621 49.6015 10.4609C49.3078 9.24642 48.8741 8.22542 48.3002 7.39795C47.7263 6.57048 47.0189 5.94987 46.1781 5.53613C45.3373 5.10905 44.3897 4.89551 43.3354 4.89551C42.2676 4.89551 41.3201 5.10905 40.4926 5.53613C39.6785 5.94987 38.9844 6.57048 38.4105 7.39795C37.8367 8.22542 37.3962 9.24642 37.0893 10.4609C36.7956 11.6621 36.6488 13.0568 36.6488 14.645V16.1865C36.6488 17.7614 36.7956 19.1561 37.0893 20.3706C37.3962 21.5851 37.8367 22.6128 38.4105 23.4536C38.9978 24.2811 39.7051 24.9084 40.5326 25.3354C41.3601 25.7625 42.3077 25.9761 43.3754 25.9761C44.4431 25.9761 45.3907 25.7625 46.2182 25.3354C47.0456 24.9084 47.7396 24.2811 48.3002 23.4536C48.8741 22.6128 49.3078 21.5851 49.6015 20.3706C49.8951 19.1561 50.0419 17.7614 50.0419 16.1865ZM80.5877 0.851562H86.0931V20.2104C86.0931 22.4393 85.6126 24.3145 84.6517 25.8359C83.6907 27.3441 82.3828 28.4852 80.7278 29.2593C79.0729 30.02 77.191 30.4004 75.0823 30.4004C72.9469 30.4004 71.0451 30.02 69.3768 29.2593C67.7085 28.4852 66.4005 27.3441 65.4529 25.8359C64.5053 24.3145 64.0315 22.4393 64.0315 20.2104V0.851562H69.5369V20.2104C69.5369 21.5718 69.7638 22.6862 70.2176 23.5537C70.6714 24.4079 71.312 25.0418 72.1395 25.4556C72.9669 25.8693 73.9479 26.0762 75.0823 26.0762C76.2301 26.0762 77.2111 25.8693 78.0252 25.4556C78.8527 25.0418 79.4866 24.4079 79.9271 23.5537C80.3675 22.6862 80.5877 21.5718 80.5877 20.2104V0.851562ZM116.895 24.4146L122.701 0.851562H125.844L126.044 5.81641L119.838 30H116.515L116.895 24.4146ZM113.232 0.851562L117.996 24.3345V30H114.373L107.766 0.851562H113.232ZM132.07 24.2344L136.754 0.851562H142.24L135.633 30H132.01L132.07 24.2344ZM127.345 0.851562L133.151 24.4946L133.491 30H130.168L123.982 5.79639L124.222 0.851562H127.345ZM173.426 14.6851V16.1865C173.426 18.3887 173.133 20.3706 172.545 22.1323C171.958 23.8807 171.124 25.3688 170.043 26.5967C168.962 27.8245 167.674 28.7655 166.179 29.4194C164.684 30.0734 163.023 30.4004 161.194 30.4004C159.393 30.4004 157.738 30.0734 156.229 29.4194C154.735 28.7655 153.44 27.8245 152.346 26.5967C151.251 25.3688 150.404 23.8807 149.803 22.1323C149.203 20.3706 148.902 18.3887 148.902 16.1865V14.6851C148.902 12.4696 149.203 10.4876 149.803 8.73926C150.404 6.99089 151.245 5.50277 152.326 4.2749C153.407 3.03369 154.695 2.0861 156.189 1.43213C157.698 0.778158 159.353 0.451172 161.154 0.451172C162.983 0.451172 164.644 0.778158 166.139 1.43213C167.634 2.0861 168.922 3.03369 170.003 4.2749C171.097 5.50277 171.938 6.99089 172.525 8.73926C173.126 10.4876 173.426 12.4696 173.426 14.6851ZM167.861 16.1865V14.645C167.861 13.0568 167.714 11.6621 167.42 10.4609C167.127 9.24642 166.693 8.22542 166.119 7.39795C165.545 6.57048 164.838 5.94987 163.997 5.53613C163.156 5.10905 162.209 4.89551 161.154 4.89551C160.087 4.89551 159.139 5.10905 158.312 5.53613C157.497 5.94987 156.803 6.57048 156.229 7.39795C155.656 8.22542 155.215 9.24642 154.908 10.4609C154.615 11.6621 154.468 13.0568 154.468 14.645V16.1865C154.468 17.7614 154.615 19.1561 154.908 20.3706C155.215 21.5851 155.656 22.6128 156.229 23.4536C156.817 24.2811 157.524 24.9084 158.352 25.3354C159.179 25.7625 160.127 25.9761 161.194 25.9761C162.262 25.9761 163.21 25.7625 164.037 25.3354C164.865 24.9084 165.559 24.2811 166.119 23.4536C166.693 22.6128 167.127 21.5851 167.42 20.3706C167.714 19.1561 167.861 17.7614 167.861 16.1865ZM205.614 0.851562V30H200.088L187.696 9.78027V30H182.191V0.851562H187.696L200.128 21.0913V0.851562H205.614ZM241.14 0.851562V30H235.655V0.851562H241.14ZM250.189 0.851562V5.1958H226.706V0.851562H250.189ZM277.292 12.8833V17.2075H261.957V12.8833H277.292ZM263.458 0.851562V30H257.953V0.851562H263.458ZM281.376 0.851562V30H275.87V0.851562H281.376ZM310.4 25.6758V30H294.905V25.6758H310.4ZM296.586 0.851562V30H291.081V0.851562H296.586ZM308.378 12.8833V17.1074H294.905V12.8833H308.378ZM310.34 0.851562V5.1958H294.905V0.851562H310.34ZM355.376 14.9253V26.2764C354.949 26.8236 354.275 27.4175 353.354 28.0581C352.446 28.6987 351.258 29.2526 349.79 29.7197C348.322 30.1735 346.52 30.4004 344.385 30.4004C342.53 30.4004 340.835 30.0934 339.3 29.4795C337.765 28.8522 336.444 27.938 335.336 26.7368C334.228 25.5356 333.374 24.0675 332.774 22.3325C332.173 20.5975 331.873 18.6156 331.873 16.3867V14.4648C331.873 12.236 332.153 10.2541 332.714 8.51904C333.288 6.78402 334.102 5.31592 335.156 4.11475C336.224 2.91357 337.498 1.99935 338.98 1.37207C340.475 0.744792 342.143 0.431152 343.985 0.431152C346.454 0.431152 348.482 0.838216 350.071 1.65234C351.672 2.46647 352.9 3.58757 353.754 5.01562C354.608 6.43034 355.142 8.05859 355.356 9.90039H349.991C349.844 8.88607 349.55 7.99854 349.11 7.23779C348.669 6.4637 348.042 5.86312 347.228 5.43604C346.427 4.99561 345.386 4.77539 344.105 4.77539C343.024 4.77539 342.069 4.98893 341.242 5.41602C340.415 5.8431 339.721 6.4637 339.16 7.27783C338.599 8.09196 338.172 9.09961 337.879 10.3008C337.598 11.502 337.458 12.8766 337.458 14.4248V16.3867C337.458 17.9482 337.618 19.3363 337.939 20.5508C338.259 21.752 338.72 22.7663 339.32 23.5938C339.934 24.4079 340.688 25.0285 341.582 25.4556C342.49 25.8693 343.518 26.0762 344.665 26.0762C345.706 26.0762 346.567 25.9894 347.248 25.8159C347.942 25.6291 348.496 25.4089 348.909 25.1553C349.323 24.9017 349.644 24.6548 349.87 24.4146V18.9492H344.085V14.9253H355.376ZM376.272 5.27588L367.964 30H362.138L373.029 0.851562H376.753L376.272 5.27588ZM383.219 30L374.871 5.27588L374.37 0.851562H378.114L389.065 30H383.219ZM382.839 19.1694V23.5137H367.203V19.1694H382.839ZM398.57 0.851562H403.335L411.302 22.793L419.25 0.851562H424.035L413.204 30H409.38L398.57 0.851562ZM396.168 0.851562H400.832L401.673 21.0112V30H396.168V0.851562ZM421.753 0.851562H426.437V30H420.932V21.0112L421.753 0.851562ZM455.461 25.6758V30H439.966V25.6758H455.461ZM441.648 0.851562V30H436.143V0.851562H441.648ZM453.439 12.8833V17.1074H439.966V12.8833H453.439ZM455.401 0.851562V5.1958H439.966V0.851562H455.401Z" fill="white"/>
</svg>
